<svg xmlns="http://www.w3.org/2000/svg"  viewBox="0 0 50 50" width="50px" height="50px" baseProfile="basic"><polygon fill="#5cf275" points="39,16.917 29,6.525 19,5.37 12,9.411 8,18.649 12,32.34 22,42.898 32,44.053 39,40.011 43,30.773"/><polygon fill="#57e66f" points="12,9.412 19,5.37 29,6.525 22,10.566"/><polygon fill="#52d969" points="32,20.959 39,16.917 29,6.525 22,10.566"/><polygon fill="#44b356" points="32,44.053 39,40.011 43,30.774 36,34.815"/><polygon fill="#49bf5c" points="32,20.959 39,16.917 43,30.774 36,34.815"/><polygon fill="#737373" points="26,32.506 28,31.351 28,29.041 26,30.196"/><polygon fill="#a8a8a8" points="14,23.268 26,30.196 28,29.041 16,22.113"/><polygon fill="#e6e6e6" points="14,25.577 26,32.506 26,30.196 14,23.268"/><polygon fill="#737373" points="23,26.155 23,20.381 21,21.536 21,27.309"/><polygon fill="#737373" points="23,34.238 23,30.774 21,29.619 21,35.392"/><polygon fill="#e6e6e6" points="21,35.392 21,21.536 19,20.381 19,34.238"/><polygon fill="#a8a8a8" points="19,20.381 21,19.272 23,20.381 21,21.536"/></svg>