<svg xmlns="http://www.w3.org/2000/svg" xmlns:xlink="http://www.w3.org/1999/xlink" viewBox="0,0,256,256" width="50px" height="50px" fill-rule="nonzero"><g fill="none" fill-rule="nonzero" stroke="none" stroke-width="1" stroke-linecap="butt" stroke-linejoin="miter" stroke-miterlimit="10" stroke-dasharray="" stroke-dashoffset="0" font-family="none" font-weight="none" font-size="none" text-anchor="none" style="mix-blend-mode: normal"><g transform="scale(5.12,5.12)"><path d="M20,8.257l-17,9.815v8.083l7,4.041l10,-2.309l3,1.732v8.083l7,4.041l17,-9.815v-8.083z" fill="#dedcdc"></path><path d="M20,8.257l-17,9.815l7,4.041l10,-2.309l7.079,4.087l-4.079,5.728l7,4.041l17,-9.815z" fill="#f0f0f0"></path><path d="M47,23.845v8.083l-17,9.815v-8.083z" fill="#c5c6c8"></path><path d="M10,30.196l10,-2.309v-8.083l-10,2.309z" fill="#c5c6c8"></path><path d="M22,11.721l2,1.155l-2,1.154l2,1.155l-2,1.155l-2,-1.155l-2,1.155l-2,-1.155l2,-1.155l-2,-1.154l2,-1.155l2,1.155z" fill="#a8a8a8"></path><path d="M16,15.185v1.155l2,1.154v-1.154z" fill="#c1c1c1"></path><path d="M20,15.185v1.155l2,1.154v-1.154z" fill="#c1c1c1"></path><path d="M20,15.185v1.155l-2,1.154v-1.154z" fill="#737373"></path><path d="M35,21.536l-2,1.155l-2,-1.155l2,-1.155z" fill="#e6e04f"></path><path d="M31,21.536v1.155l1,0.577l1,-0.577z" fill="#fff957"></path><path d="M35,21.536v1.155l-1,0.577l-1,-0.577z" fill="#b3ae3d"></path><path d="M39,21.536l-2,1.155l-2,-1.155l2,-1.155z" fill="#e64e4e"></path><path d="M35,21.536v1.155l1,0.577l1,-0.577z" fill="#ff5757"></path><path d="M39,21.536v1.155l-1,0.577l-1,-0.577z" fill="#b33d3d"></path><path d="M24,12.876v1.154l-1,0.578l-1,-0.578z" fill="#737373"></path><path d="M24,15.185v1.155l-2,1.154v-1.154z" fill="#737373"></path><path d="M16,12.876v1.154l1,0.578l1,-0.578z" fill="#c1c1c1"></path><path d="M39,23.845l-2,1.155l-2,-1.155l2,-1.154z" fill="#5ccae6"></path><path d="M35,23.845v1.155l2,1.155v-1.155z" fill="#66e1ff"></path><path d="M39,23.845v1.155l-2,1.155v-1.155z" fill="#479db3"></path><path d="M35,23.845l-2,1.155l-2,-1.155l2,-1.154z" fill="#57e66f"></path><path d="M31,23.845v1.155l2,1.155v-1.155z" fill="#61ff7b"></path><path d="M35,23.845v1.155l-2,1.155v-1.155z" fill="#44b356"></path></g></g></svg>