<svg xmlns="http://www.w3.org/2000/svg"  viewBox="0 0 50 50" width="50px" height="50px" baseProfile="basic"><polygon fill="#ff5757" points="12.999,1.907 11.002,3.059 11,3.058 11,33.083 37,48.094 38.999,46.94 39,16.917"/><polygon fill="#e64e4e" points="39,16.917 12.999,1.907 11,3.061 37,18.072"/><path fill="#ccc" d="M14,8.257v23.094l20,11.547V19.804L14,8.257z M16,30.196V11.721l16,9.238l0.002,18.479L16,30.196z"/><path fill="#ccc" d="M19,16.917v11.547l10,5.773V22.691L19,16.917z M27,30.773l-6-3.464v-6.928l6,3.464V30.773z"/><polygon fill="#737373" points="25,25 25,27.309 13,34.238 13,31.928"/><polygon fill="#a8a8a8" points="25,25 23,23.845 11,30.773 13,31.928"/><polygon fill="#ccc" points="11,30.773 11,33.083 13,34.238 13,31.928"/><polygon fill="#b33d3d" points="37,18.072 37,48.094 38.999,46.94 39,16.917"/></svg>